<svg id="Layer_1" data-name="Layer 1" xmlns="http://www.w3.org/2000/svg" viewBox="0 0 200 300"><defs><style>.cls-1{fill:#f9c9f2;}.cls-2{fill:#ff90ff;}.cls-3{fill:#fdf;}.cls-4{fill:#ffadff;}.cls-5{fill:#ff76ff;}.cls-6{fill:#ff4bff;}.cls-7,.cls-8{fill:#fff;}.cls-8{fill-rule:evenodd;}</style></defs><rect class="cls-1" y="200" width="100" height="100"/><rect class="cls-2" y="100" width="100" height="100"/><rect class="cls-3" x="100" y="200" width="100" height="100"/><rect class="cls-4" x="100" y="100" width="100" height="100"/><rect class="cls-5" x="100" width="100" height="100"/><rect class="cls-6" width="100" height="100"/><path class="cls-7" d="M51.87,12.38a4.76,4.76,0,0,0-3.74,0L14.88,26.63a4.76,4.76,0,0,0,0,8.74l12.56,5.38a4.7,4.7,0,0,1,1.69-1.22l19-8.15a4.75,4.75,0,1,1,3.74,8.74L38.92,45.67l9.21,3.95a4.76,4.76,0,0,0,3.74,0L85.12,35.37a4.76,4.76,0,0,0,0-8.74Z"/><path class="cls-7" d="M18.22,47.13l8,3.44V70.06a43.1,43.1,0,0,0-5-.83A4.73,4.73,0,0,1,17,65a52.69,52.69,0,0,1,1.18-17.88Z"/><path class="cls-7" d="M46.67,81.22a42.73,42.73,0,0,0-10.92-7.78V54.65l8.64,3.7a14.29,14.29,0,0,0,11.22,0L81.78,47.13A52.56,52.56,0,0,1,83.25,59.5,52.93,52.93,0,0,1,83,65a4.73,4.73,0,0,1-4.23,4.22,42.65,42.65,0,0,0-25.41,12A4.75,4.75,0,0,1,46.67,81.22Z"/><path class="cls-7" d="M31,88a4.75,4.75,0,0,0,4.75-4.75V73.44a42.42,42.42,0,0,0-9.5-3.38V83.25A4.75,4.75,0,0,0,31,88Z"/><path class="cls-8" d="M128.75,128.75a12.75,12.75,0,0,1,21.25-9.5A12.75,12.75,0,0,1,170.52,133h5a8.5,8.5,0,0,1,0,17H154.25v-4.25a4.25,4.25,0,0,0-8.5,0V150H124.5a8.5,8.5,0,0,1,0-17h5A12.73,12.73,0,0,1,128.75,128.75Zm17,4.25v-4.25A4.25,4.25,0,1,0,141.5,133Zm12.75,0a4.25,4.25,0,1,0-4.25-4.25V133Z"/><path class="cls-7" d="M145.75,154.25h-25.5V175.5a8.51,8.51,0,0,0,8.5,8.5h17Z"/><path class="cls-7" d="M154.25,184h17a8.51,8.51,0,0,0,8.5-8.5V154.25h-25.5Z"/><path class="cls-8" d="M115.86,222a20,20,0,0,1,28.28,0l5.86,5.86,5.86-5.86a20,20,0,0,1,28.28,28.28L150,284.46l-34.14-34.15A20,20,0,0,1,115.86,222Z"/><path class="cls-8" d="M32.25,233.25v-4.31A12.94,12.94,0,0,1,45.19,216h8.62a12.94,12.94,0,0,1,12.94,12.94v4.31h8.63A8.62,8.62,0,0,1,84,241.88v15.39a99.54,99.54,0,0,1-69,0V241.88a8.62,8.62,0,0,1,8.62-8.63Zm8.63-4.31a4.32,4.32,0,0,1,4.31-4.32h8.62a4.32,4.32,0,0,1,4.31,4.32v4.31H40.88Zm4.31,21.56a4.31,4.31,0,0,1,4.31-4.31h0a4.31,4.31,0,1,1,0,8.62h0A4.31,4.31,0,0,1,45.19,250.5Z"/><path class="cls-7" d="M15,266.42v10A8.62,8.62,0,0,0,23.62,285H75.38A8.62,8.62,0,0,0,84,276.38v-10a108.34,108.34,0,0,1-69,0Z"/><path class="cls-7" d="M155.25,17.85c0-2.43-2.35-4.4-5.25-4.4s-5.25,2-5.25,4.4v4.41c0,2.43,2.35,4.4,5.25,4.4s5.25-2,5.25-4.4Z"/><path class="cls-7" d="M179.7,30a3.92,3.92,0,0,0,0-6.23,6,6,0,0,0-7.43,0l-3.71,3.11a3.92,3.92,0,0,0,0,6.23,6,6,0,0,0,7.43,0Z"/><path class="cls-7" d="M192,48.68c0,2.43-2.35,4.4-5.25,4.4H181.5c-2.9,0-5.25-2-5.25-4.4s2.35-4.41,5.25-4.41h5.25C189.65,44.27,192,46.25,192,48.68Z"/><path class="cls-7" d="M124,33.11a6,6,0,0,0,7.43,0,3.92,3.92,0,0,0,0-6.23l-3.71-3.11a6,6,0,0,0-7.43,0,3.92,3.92,0,0,0,0,6.23Z"/><path class="cls-7" d="M123.75,48.68c0,2.43-2.35,4.4-5.25,4.4h-5.25c-2.9,0-5.25-2-5.25-4.4s2.35-4.41,5.25-4.41h5.25C121.4,44.27,123.75,46.25,123.75,48.68Z"/><path class="cls-7" d="M139.5,75.1V70.69h21V75.1c0,4.86-4.7,8.8-10.5,8.8S139.5,80,139.5,75.1Z"/><path class="cls-7" d="M160.5,66.29a5.07,5.07,0,0,1,2.5-3.78c4.87-3.23,8-8.22,8-13.83,0-9.73-9.4-17.62-21-17.62S129,39,129,48.68c0,5.61,3.13,10.6,8,13.83a5.07,5.07,0,0,1,2.5,3.78Z"/><path class="cls-8" d="M26.86,116a4.62,4.62,0,0,1,4.62,4.62v4.62H36.1a4.62,4.62,0,0,1,0,9.24H31.48v4.62a4.62,4.62,0,0,1-9.24,0v-4.62H17.62a4.62,4.62,0,0,1,0-9.24h4.62v-4.62A4.62,4.62,0,0,1,26.86,116Zm0,46.2a4.62,4.62,0,0,1,4.62,4.62v4.62H36.1a4.62,4.62,0,1,1,0,9.23H31.48v4.62a4.62,4.62,0,0,1-9.24,0v-4.62H17.62a4.62,4.62,0,1,1,0-9.23h4.62v-4.62A4.62,4.62,0,0,1,26.86,162.2Z"/><path class="cls-8" d="M59.2,118.09a4.61,4.61,0,0,1,4.46,3.43l5.45,20.58L84.6,151a4.62,4.62,0,0,1,0,8L69.11,168l-5.45,20.58a4.62,4.62,0,0,1-8.93,0L49.28,168,33.79,159a4.62,4.62,0,0,1,0-8l15.49-8.94,5.45-20.58A4.62,4.62,0,0,1,59.2,118.09Z"/></svg>